<svg width="98" height="89" viewBox="0 0 98 89" fill="none" xmlns="http://www.w3.org/2000/svg">
<g clip-path="url(#clip0_125_553)">
<path d="M46.504 55.4677C47.1624 56.3313 48.0486 56.8079 48.9999 56.8079C49.9512 56.8079 50.8374 56.3313 51.492 55.4715L69.622 32.6172C70.2958 31.7326 70.4814 30.8766 70.1484 30.2075C69.8153 29.5383 69.0172 29.1704 67.9032 29.1704H60.9628C59.0736 29.1704 57.5385 27.6414 57.5385 25.7597V4.01876C57.5404 1.80349 55.7297 0 53.5056 0H44.4923C42.2681 0 40.4594 1.80349 40.4594 4.01876V25.7617C40.4594 27.6433 38.9224 29.1723 37.0332 29.1723H30.0928C28.9788 29.1723 28.1826 29.5402 27.8495 30.2094C27.5165 30.8785 27.7021 31.7345 28.3797 32.6229L46.504 55.4677Z" fill="#39BA8B"/>
<path d="M97.9866 64.3573L88.7915 33.8276H77.6727L72.2673 43.5276H79.2058L85.1184 64.1399H12.8816L18.7942 43.5276H25.7327L20.3273 33.8276H9.20856L0 64.445V84.148C0 86.8227 2.18395 88.9979 4.86938 88.9979H93.1306C95.8161 88.9979 98 86.8227 98 84.148V73.5387L97.9866 64.3573Z" fill="#39BA8B"/>
</g>
<defs>
<clipPath id="clip0_125_553">
<rect width="98" height="89" fill="white"/>
</clipPath>
</defs>
</svg>
