<svg width="59" height="103" viewBox="0 0 59 103" fill="none" xmlns="http://www.w3.org/2000/svg">
<g clip-path="url(#clip0_125_571)">
<path d="M58.1681 21.4569C57.4031 18.5339 56.1633 15.8342 54.6659 13.4543C54.2824 12.8609 53.9374 12.2755 53.4931 11.686L52.8559 10.8109C52.6388 10.5112 52.4298 10.2295 52.2472 10.0163C51.8272 9.52141 51.4112 9.02854 50.9973 8.53969C50.5306 8.01865 50.0476 7.5117 49.5485 7.02889C47.5437 5.0916 45.2448 3.48826 42.8322 2.35969C40.4115 1.24319 37.9197 0.581331 35.5498 0.253421C33.1757 -0.084548 30.9153 -0.0443137 28.8294 0.140764C26.7415 0.333889 24.8138 0.683929 23.0566 1.14461C19.5382 2.0519 16.6751 3.24686 14.3985 4.34928C12.1239 5.45774 10.4296 6.47567 9.29733 7.21799C8.73121 7.58815 8.30104 7.88588 8.00885 8.09108C7.70652 8.30633 7.55028 8.41899 7.55028 8.41899C6.7711 8.97824 6.46065 10.0203 6.86444 10.9296C6.94764 11.1187 7.08156 11.2656 7.21142 11.4144L7.21345 11.4164C7.33722 11.5573 7.47114 11.6719 7.62535 11.7745C7.64767 11.7886 7.66999 11.8027 7.69231 11.8168C8.12654 12.0823 8.63179 12.1809 9.14718 12.0843C9.1837 12.0783 9.22022 12.0703 9.25878 12.0602C9.37646 12.032 9.49821 12.034 9.61387 11.9838L9.72547 11.9355C9.72547 11.9355 9.86547 11.8731 10.1374 11.7544C10.4296 11.6337 10.8638 11.4567 11.4279 11.2233C12.5763 10.7767 14.2727 10.1269 16.4621 9.45703C18.6494 8.79719 21.3319 8.09108 24.3857 7.66862C27.4273 7.25219 30.8666 7.1335 34.2613 7.83961C34.5413 7.89795 34.8193 7.97239 35.0973 8.0428C35.4037 8.12125 35.706 8.20977 36.0043 8.30231C36.5826 8.48135 37.1548 8.68856 37.7189 8.92795C37.9441 9.0225 38.1653 9.1251 38.3844 9.22971C38.9668 9.50531 39.539 9.81311 40.097 10.1571C40.3039 10.2859 40.5068 10.4206 40.7077 10.5574C41.2272 10.9095 41.7344 11.2937 42.2255 11.7102C42.4487 11.8993 42.6678 12.0964 42.8809 12.2976C43.1041 12.5088 43.3313 12.714 43.5485 12.9393C43.8792 13.2873 44.1998 13.6515 44.5143 14.0277C44.8511 14.4622 45.19 14.9007 45.5309 15.3433C45.7379 15.5908 45.8819 15.798 46.0138 15.9951L46.4379 16.6027C46.7301 16.9869 46.9979 17.4657 47.2779 17.9103C48.3615 19.7269 49.238 21.646 49.8224 23.6578C50.352 25.6815 50.6442 27.7918 50.5732 29.9987C50.4778 32.2056 50.0598 34.4888 49.3456 36.8003C47.9577 41.4534 45.4903 46.0945 42.8504 50.9407L41.8663 52.7975L40.9106 54.6503C40.2816 55.8915 39.6891 56.9738 39.0317 58.199C37.7371 60.5989 36.331 63.1015 35.2616 65.8395C34.1882 68.5654 33.3827 71.426 32.9688 74.2545C32.8795 74.9606 32.7922 75.6647 32.705 76.3668C32.6482 77.0669 32.5913 77.7629 32.5345 78.457C32.5081 79.147 32.4797 79.835 32.4534 80.519C32.4209 81.1245 32.3884 81.728 32.356 82.3295C32.22 83.2066 32.0699 84.2769 31.733 85.2727C31.4408 86.2785 31.0229 87.2381 30.5582 88.1575C29.5863 89.97 28.3749 91.6297 26.9464 92.8931C25.5139 94.1725 24.0022 95.0838 22.3748 95.5465C21.969 95.6713 21.5551 95.7718 21.1391 95.8503C21.133 95.8523 21.127 95.8523 21.1209 95.8543C19.8567 96.0937 18.552 96.142 17.3163 96.0535C13.9764 95.8342 11.0626 94.4803 9.20399 92.7885C7.26417 91.1026 6.5195 89.0426 6.13397 87.2683C5.75047 85.4799 5.54147 83.8323 5.38117 82.6092C5.29595 81.9775 5.23102 81.4927 5.18638 81.1647C5.12754 80.8207 5.0829 80.6337 5.0829 80.6337L5.05652 80.519C5.00985 80.3158 4.9084 80.1227 4.75418 79.9577C4.28343 79.4608 3.49615 79.4347 2.99293 79.9014C2.99293 79.9014 2.84481 80.0382 2.58508 80.3239C2.33956 80.6155 1.94389 81.042 1.57865 81.6818C0.799478 82.921 -0.113615 85.0333 0.0121885 88.0026C0.196836 90.9196 1.60503 94.6372 4.59591 97.5361C7.52999 100.487 11.8723 102.465 16.7563 102.921C19.2095 103.129 21.8006 102.913 24.4161 102.119L24.8138 101.996L25.1324 101.891L25.3779 101.795L26.364 101.401C27.0052 101.113 27.6363 100.789 28.245 100.437C29.4483 99.7148 30.5866 98.884 31.6133 97.9324C33.6972 96.0555 35.3692 93.744 36.6597 91.1912C37.2846 89.9057 37.8345 88.5598 38.2221 87.1456C38.3154 86.8378 38.3702 86.5099 38.4473 86.194C38.4534 86.1699 38.4595 86.1438 38.4656 86.1196C38.7253 85.0293 38.9201 83.9027 39.0439 82.6413L39.0824 81.6777L39.1129 80.6075C39.125 80.006 39.1372 79.4005 39.1494 78.7949C39.1879 78.1954 39.2245 77.5939 39.265 76.9884C39.334 76.393 39.405 75.7955 39.4761 75.198C39.823 72.8201 40.4176 70.5067 41.3509 68.2495C42.264 65.9904 43.5079 63.7453 44.8552 61.3956C45.5187 60.2429 46.2715 58.9534 46.9066 57.7785L47.8806 56.0223L48.8931 54.3043C51.6628 49.6854 54.7937 44.8512 56.8553 39.3009C57.8962 36.5388 58.6064 33.5755 58.8945 30.5358C59.1563 27.5021 58.9391 24.378 58.1681 21.4569Z" fill="#39BA8B"/>
<path d="M8.10437 50.4115C7.18722 51.8378 6.14832 53.4552 6.0286 55.8673C5.95758 57.3077 6.66777 58.3598 7.35766 59.3777C8.06378 60.4198 8.79426 61.4981 8.96267 63.2765C9.12297 64.9703 8.70701 66.3906 8.40061 67.4347C8.04146 68.6558 7.55042 70.3275 9.15341 71.1222C9.44763 71.267 9.74793 71.3414 10.0442 71.3414C11.3306 71.3414 12.0652 70.0781 12.7814 68.8509C13.2989 67.9638 13.8853 66.9579 14.634 66.3584C15.0094 66.0566 15.4659 65.7368 15.9894 65.3666C19.0148 63.2422 24.0794 59.6875 23.5438 52.1879C23.075 45.6458 20.7335 42.0609 17.3631 38.6892C14.2566 35.5851 13.0554 34.0261 13.6519 32.4127C14.2688 30.749 17.3794 28.1116 19.0209 27.8622L19.2908 27.8199C20.6178 27.6107 21.7663 27.4316 25.4207 28.7433C26.9912 29.3066 28.5434 30.1012 29.6777 30.6826L30.2682 30.9823C31.5465 31.6261 32.5144 31.2318 32.9101 30.5498C33.8414 28.9364 31.3964 27.3854 30.4772 26.802C27.748 25.0679 25.6865 24.4523 24.0287 24.0801C20.5123 23.2895 15.7804 23.5772 12.4203 26.4439C12.3817 26.4761 12.3452 26.5123 12.3087 26.5465C12.0449 26.7798 11.7689 26.9911 11.5254 27.2586C9.53894 29.4172 7.28258 34.36 8.49192 38.5886C8.73541 39.4396 8.96267 40.1558 9.16761 40.7915C9.88388 43.0265 10.2106 44.0444 9.79054 46.6757C9.55111 48.1644 8.88151 49.2045 8.10437 50.4115Z" fill="#39BA8B"/>
</g>
<defs>
<clipPath id="clip0_125_571">
<rect width="59" height="103" fill="white"/>
</clipPath>
</defs>
</svg>
