<svg width="45" height="50" viewBox="0 0 45 50" fill="none" xmlns="http://www.w3.org/2000/svg">
<g clip-path="url(#clip0_125_483)">
<path d="M23.4519 43.5964L22.6322 50C29.1892 47.3079 35.0059 43.1521 39.6857 37.8724C43.4137 33.2201 45.2909 27.3654 44.9736 21.4323C44.5241 9.17406 34.107 -0.418203 21.6804 0.0261255C9.2803 0.444317 -0.422991 10.7684 0.0264803 23.0266C0.475952 34.4224 11.6599 44.0146 23.4519 43.5964Z" fill="#FF792E"/>
<path d="M11.8449 25.3267C13.3051 25.3267 14.4888 24.1565 14.4888 22.713C14.4888 21.2695 13.3051 20.0993 11.8449 20.0993C10.3847 20.0993 9.20093 21.2695 9.20093 22.713C9.20093 24.1565 10.3847 25.3267 11.8449 25.3267Z" fill="white"/>
<path d="M22.5529 25.196C24.0131 25.196 25.1968 24.0258 25.1968 22.5823C25.1968 21.1388 24.0131 19.9686 22.5529 19.9686C21.0927 19.9686 19.9089 21.1388 19.9089 22.5823C19.9089 24.0258 21.0927 25.196 22.5529 25.196Z" fill="white"/>
<path d="M33.4196 25.0915C34.8798 25.0915 36.0635 23.9213 36.0635 22.4778C36.0635 21.0343 34.8798 19.8641 33.4196 19.8641C31.9594 19.8641 30.7756 21.0343 30.7756 22.4778C30.7756 23.9213 31.9594 25.0915 33.4196 25.0915Z" fill="white"/>
</g>
<defs>
<clipPath id="clip0_125_483">
<rect width="45" height="50" fill="white"/>
</clipPath>
</defs>
</svg>
