<svg width="25" height="25" viewBox="0 0 25 25" fill="none" xmlns="http://www.w3.org/2000/svg">
<path d="M11.96 23.384C10.2747 23.384 8.70667 23.0853 7.256 22.488C5.80533 21.8907 4.536 21.0587 3.448 19.992C2.38133 18.9253 1.53867 17.688 0.92 16.28C0.322667 14.8507 0.024 13.3147 0.024 11.672C0.024 10.008 0.322667 8.472 0.92 7.064C1.51733 5.656 2.34933 4.42933 3.416 3.384C4.504 2.31733 5.76267 1.496 7.192 0.919998C8.64267 0.322665 10.2107 0.0239983 11.896 0.0239983C13.6027 0.0239983 15.1707 0.322665 16.6 0.919998C18.0507 1.496 19.3093 2.31733 20.376 3.384C21.464 4.42933 22.3067 5.66667 22.904 7.096C23.5013 8.504 23.8 10.04 23.8 11.704C23.8 13.3467 23.5013 14.8827 22.904 16.312C22.3067 17.72 21.464 18.9573 20.376 20.024C19.3093 21.0693 18.0613 21.8907 16.632 22.488C15.2027 23.0853 13.6453 23.384 11.96 23.384ZM11.896 18.808C13.2613 18.808 14.4453 18.5093 15.448 17.912C16.4507 17.3147 17.2293 16.4827 17.784 15.416C18.36 14.328 18.648 13.08 18.648 11.672C18.648 10.6053 18.488 9.64533 18.168 8.792C17.848 7.91733 17.3893 7.17067 16.792 6.552C16.1947 5.912 15.48 5.432 14.648 5.112C13.8373 4.77067 12.92 4.6 11.896 4.6C10.552 4.6 9.37867 4.89867 8.376 5.496C7.37333 6.072 6.584 6.89333 6.008 7.96C5.45333 9.00533 5.176 10.2427 5.176 11.672C5.176 12.7387 5.336 13.7093 5.656 14.584C5.976 15.4587 6.43467 16.216 7.032 16.856C7.62933 17.4747 8.33333 17.9547 9.144 18.296C9.976 18.6373 10.8933 18.808 11.896 18.808ZM22.04 24.792L11.48 14.232L14.392 11.32L24.952 21.88L22.04 24.792Z" fill="#FF792E"/>
</svg>
