<svg width="40" height="40" viewBox="0 0 40 40" fill="none" xmlns="http://www.w3.org/2000/svg">
<path d="M40 20C40 31.0457 31.0457 40 20 40C8.9543 40 0 31.0457 0 20C0 8.9543 8.9543 0 20 0C31.0457 0 40 8.9543 40 20Z" fill="#39BA8B"/>
<g clip-path="url(#clip0_207_2)">
<path d="M19.8701 27.6801L19.5601 30.1301C22.0401 29.1001 24.2401 27.5101 26.0101 25.4901C27.4201 23.7101 28.1301 21.4701 28.0101 19.2001C27.8401 14.5101 23.9001 10.8401 19.2001 11.0101C14.5101 11.1701 10.8401 15.1201 11.0101 19.8101C11.1801 24.1701 15.4101 27.8401 19.8701 27.6801Z" fill="white"/>
<path d="M15.48 20.6899C16.0323 20.6899 16.48 20.2422 16.48 19.6899C16.48 19.1377 16.0323 18.6899 15.48 18.6899C14.9277 18.6899 14.48 19.1377 14.48 19.6899C14.48 20.2422 14.9277 20.6899 15.48 20.6899Z" fill="#FF792E"/>
<path d="M19.53 20.6401C20.0823 20.6401 20.53 20.1924 20.53 19.6401C20.53 19.0879 20.0823 18.6401 19.53 18.6401C18.9777 18.6401 18.53 19.0879 18.53 19.6401C18.53 20.1924 18.9777 20.6401 19.53 20.6401Z" fill="#FF792E"/>
<path d="M23.6399 20.6001C24.1922 20.6001 24.6399 20.1524 24.6399 19.6001C24.6399 19.0478 24.1922 18.6001 23.6399 18.6001C23.0876 18.6001 22.6399 19.0478 22.6399 19.6001C22.6399 20.1524 23.0876 20.6001 23.6399 20.6001Z" fill="#FF792E"/>
</g>
<defs>
<clipPath id="clip0_207_2">
<rect width="17.02" height="19.13" fill="white" transform="translate(11 11)"/>
</clipPath>
</defs>
</svg>
